<mxfile host="app.diagrams.net" modified="2023-05-05T06:30:36.775Z" agent="Mozilla/5.0 (Windows NT 10.0; Win64; x64) AppleWebKit/537.36 (KHTML, like Gecko) Chrome/113.0.0.0 Safari/537.36" etag="lpu1SfvQn1qvpOjQAJZA" version="21.2.9" type="device">
  <diagram name="第 1 页" id="_hKIImX2wf-dFybGEGHS">
    <mxGraphModel dx="957" dy="445" grid="1" gridSize="10" guides="1" tooltips="1" connect="1" arrows="1" fold="1" page="1" pageScale="1" pageWidth="827" pageHeight="1169" math="0" shadow="0">
      <root>
        <mxCell id="0" />
        <mxCell id="1" parent="0" />
        <mxCell id="SaKuZngBujYHLQphRgoP-3" style="edgeStyle=orthogonalEdgeStyle;rounded=0;orthogonalLoop=1;jettySize=auto;html=1;entryX=0.5;entryY=0;entryDx=0;entryDy=0;" edge="1" parent="1" source="SaKuZngBujYHLQphRgoP-1" target="SaKuZngBujYHLQphRgoP-2">
          <mxGeometry relative="1" as="geometry">
            <mxPoint x="520" y="360" as="targetPoint" />
          </mxGeometry>
        </mxCell>
        <mxCell id="SaKuZngBujYHLQphRgoP-5" value="欲爬取網站之網址" style="edgeLabel;html=1;align=center;verticalAlign=middle;resizable=0;points=[];" vertex="1" connectable="0" parent="SaKuZngBujYHLQphRgoP-3">
          <mxGeometry x="-0.2083" y="1" relative="1" as="geometry">
            <mxPoint x="-15" y="-9" as="offset" />
          </mxGeometry>
        </mxCell>
        <mxCell id="SaKuZngBujYHLQphRgoP-28" style="edgeStyle=orthogonalEdgeStyle;rounded=0;orthogonalLoop=1;jettySize=auto;html=1;exitX=0;exitY=0.25;exitDx=0;exitDy=0;entryX=0.073;entryY=0.752;entryDx=0;entryDy=0;entryPerimeter=0;" edge="1" parent="1" source="SaKuZngBujYHLQphRgoP-1" target="SaKuZngBujYHLQphRgoP-25">
          <mxGeometry relative="1" as="geometry">
            <mxPoint x="240" y="620" as="targetPoint" />
            <Array as="points">
              <mxPoint x="230" y="340" />
              <mxPoint x="230" y="620" />
            </Array>
          </mxGeometry>
        </mxCell>
        <mxCell id="SaKuZngBujYHLQphRgoP-33" value="欲查詢之日期" style="edgeLabel;html=1;align=center;verticalAlign=middle;resizable=0;points=[];" vertex="1" connectable="0" parent="SaKuZngBujYHLQphRgoP-28">
          <mxGeometry x="0.6989" relative="1" as="geometry">
            <mxPoint x="16" y="10" as="offset" />
          </mxGeometry>
        </mxCell>
        <mxCell id="SaKuZngBujYHLQphRgoP-1" value="用戶" style="whiteSpace=wrap;html=1;aspect=fixed;" vertex="1" parent="1">
          <mxGeometry x="280" y="320" width="80" height="80" as="geometry" />
        </mxCell>
        <mxCell id="SaKuZngBujYHLQphRgoP-21" style="edgeStyle=orthogonalEdgeStyle;rounded=0;orthogonalLoop=1;jettySize=auto;html=1;" edge="1" parent="1" source="SaKuZngBujYHLQphRgoP-2">
          <mxGeometry relative="1" as="geometry">
            <mxPoint x="400" y="480" as="targetPoint" />
            <Array as="points">
              <mxPoint x="440" y="480" />
              <mxPoint x="440" y="480" />
            </Array>
          </mxGeometry>
        </mxCell>
        <mxCell id="SaKuZngBujYHLQphRgoP-2" value="1&lt;br&gt;網頁爬蟲" style="ellipse;whiteSpace=wrap;html=1;aspect=fixed;" vertex="1" parent="1">
          <mxGeometry x="480" y="440" width="80" height="80" as="geometry" />
        </mxCell>
        <mxCell id="SaKuZngBujYHLQphRgoP-11" value="" style="group" vertex="1" connectable="0" parent="1">
          <mxGeometry x="280" y="460.25" width="120" height="39.5" as="geometry" />
        </mxCell>
        <mxCell id="SaKuZngBujYHLQphRgoP-13" value="" style="group" vertex="1" connectable="0" parent="SaKuZngBujYHLQphRgoP-11">
          <mxGeometry width="120" height="39.5" as="geometry" />
        </mxCell>
        <mxCell id="SaKuZngBujYHLQphRgoP-9" value="" style="endArrow=none;html=1;rounded=0;" edge="1" parent="SaKuZngBujYHLQphRgoP-13">
          <mxGeometry width="50" height="50" relative="1" as="geometry">
            <mxPoint as="sourcePoint" />
            <mxPoint x="120" as="targetPoint" />
          </mxGeometry>
        </mxCell>
        <mxCell id="SaKuZngBujYHLQphRgoP-10" value="" style="endArrow=none;html=1;rounded=0;" edge="1" parent="SaKuZngBujYHLQphRgoP-13">
          <mxGeometry width="50" height="50" relative="1" as="geometry">
            <mxPoint y="39.5" as="sourcePoint" />
            <mxPoint x="120" y="39.5" as="targetPoint" />
          </mxGeometry>
        </mxCell>
        <mxCell id="SaKuZngBujYHLQphRgoP-12" value="歷史爬蟲資料" style="text;html=1;align=center;verticalAlign=middle;resizable=0;points=[];autosize=1;strokeColor=none;fillColor=none;" vertex="1" parent="SaKuZngBujYHLQphRgoP-13">
          <mxGeometry x="10" y="4.75" width="100" height="30" as="geometry" />
        </mxCell>
        <mxCell id="SaKuZngBujYHLQphRgoP-22" value="" style="endArrow=none;html=1;rounded=0;" edge="1" parent="1">
          <mxGeometry width="50" height="50" relative="1" as="geometry">
            <mxPoint x="420" y="480" as="sourcePoint" />
            <mxPoint x="420" y="380" as="targetPoint" />
          </mxGeometry>
        </mxCell>
        <mxCell id="SaKuZngBujYHLQphRgoP-23" value="" style="endArrow=classic;html=1;rounded=0;" edge="1" parent="1">
          <mxGeometry width="50" height="50" relative="1" as="geometry">
            <mxPoint x="420" y="380" as="sourcePoint" />
            <mxPoint x="360" y="380" as="targetPoint" />
          </mxGeometry>
        </mxCell>
        <mxCell id="SaKuZngBujYHLQphRgoP-24" value="爬出的資料" style="text;html=1;align=center;verticalAlign=middle;resizable=0;points=[];autosize=1;strokeColor=none;fillColor=none;" vertex="1" parent="1">
          <mxGeometry x="410" y="458" width="80" height="30" as="geometry" />
        </mxCell>
        <mxCell id="SaKuZngBujYHLQphRgoP-29" style="edgeStyle=orthogonalEdgeStyle;rounded=0;orthogonalLoop=1;jettySize=auto;html=1;entryX=0;entryY=0.75;entryDx=0;entryDy=0;" edge="1" parent="1" source="SaKuZngBujYHLQphRgoP-25" target="SaKuZngBujYHLQphRgoP-1">
          <mxGeometry relative="1" as="geometry">
            <mxPoint x="250" y="380" as="targetPoint" />
            <Array as="points">
              <mxPoint x="240" y="600" />
              <mxPoint x="240" y="380" />
            </Array>
          </mxGeometry>
        </mxCell>
        <mxCell id="SaKuZngBujYHLQphRgoP-34" value="歷史爬出資料" style="edgeLabel;html=1;align=center;verticalAlign=middle;resizable=0;points=[];" vertex="1" connectable="0" parent="SaKuZngBujYHLQphRgoP-29">
          <mxGeometry x="-0.6758" y="-2" relative="1" as="geometry">
            <mxPoint x="15" y="-8" as="offset" />
          </mxGeometry>
        </mxCell>
        <mxCell id="SaKuZngBujYHLQphRgoP-30" style="edgeStyle=orthogonalEdgeStyle;rounded=0;orthogonalLoop=1;jettySize=auto;html=1;" edge="1" parent="1" source="SaKuZngBujYHLQphRgoP-25">
          <mxGeometry relative="1" as="geometry">
            <mxPoint x="360" y="500" as="targetPoint" />
          </mxGeometry>
        </mxCell>
        <mxCell id="SaKuZngBujYHLQphRgoP-25" value="2&lt;br&gt;爬蟲紀錄查詢" style="ellipse;whiteSpace=wrap;html=1;aspect=fixed;" vertex="1" parent="1">
          <mxGeometry x="320" y="560" width="80" height="80" as="geometry" />
        </mxCell>
        <mxCell id="SaKuZngBujYHLQphRgoP-32" value="" style="endArrow=classic;html=1;rounded=0;entryX=0.252;entryY=0.066;entryDx=0;entryDy=0;entryPerimeter=0;" edge="1" parent="1" target="SaKuZngBujYHLQphRgoP-25">
          <mxGeometry width="50" height="50" relative="1" as="geometry">
            <mxPoint x="339.71" y="500" as="sourcePoint" />
            <mxPoint x="339.71" y="560" as="targetPoint" />
          </mxGeometry>
        </mxCell>
        <mxCell id="SaKuZngBujYHLQphRgoP-35" value="日期" style="text;html=1;align=center;verticalAlign=middle;resizable=0;points=[];autosize=1;strokeColor=none;fillColor=none;" vertex="1" parent="1">
          <mxGeometry x="350" y="520" width="50" height="30" as="geometry" />
        </mxCell>
        <mxCell id="SaKuZngBujYHLQphRgoP-36" value="爬出資料" style="text;html=1;align=center;verticalAlign=middle;resizable=0;points=[];autosize=1;strokeColor=none;fillColor=none;" vertex="1" parent="1">
          <mxGeometry x="280" y="520" width="70" height="30" as="geometry" />
        </mxCell>
      </root>
    </mxGraphModel>
  </diagram>
</mxfile>
